<svg width="50" height="50" xmlns="http://www.w3.org/2000/svg">

 <g>
  <title>background</title>
  <rect fill="none" id="canvas_background" height="402" width="582" y="-1" x="-1"/>
 </g>
 <g>
  <title>Layer 1</title>
  <path fill-opacity="0" id="svg_3" fill="#ffffff" d="m50,45.233c0,2.633 -2.134,4.767 -4.767,4.767l-40.466,0c-2.633,0 -4.767,-2.134 -4.767,-4.767l0,-40.466c0,-2.633 2.134,-4.767 4.767,-4.767l40.466,0c2.633,0 4.767,2.134 4.767,4.767l0,40.466z"/>
  <path fill="#ffffff" id="svg_4" opacity="0.2" d="m50,35.644l-16.018,-16.019l-0.246,-0.246l-3.079,-3.074l-2.899,-1.219l-4.545,0.584l-2.765,1.621l-5.434,6.006l1.765,10.601l16.099,16.102l12.355,0c2.633,0 4.767,-2.134 4.767,-4.767l0,-9.589z"/>
  <path stroke="null" id="svg_7" fill="#FFFFFF" d="m46.334654,16.324473c-0.598544,-1.145818 -1.305913,-2.238491 -2.11028,-3.263137c-0.269699,-0.070152 -0.553594,-0.108417 -0.846951,-0.108417c-1.615831,0 -2.938305,1.133063 -3.035302,2.563742c0.648225,0.824819 1.218379,1.702784 1.698634,2.625391c1.142674,2.193849 1.781436,4.64067 1.781436,7.221418c0,9.425896 -8.504997,17.068227 -18.994888,17.068227s-18.994888,-7.642331 -18.994888,-17.068227s8.504997,-17.068227 18.994888,-17.068227c1.71756,0 3.380707,0.206205 4.961051,0.588853c0.160873,-0.357138 0.359599,-0.701521 0.586715,-1.031024c0.449499,-0.654753 0.96524,-1.264864 1.47625,-1.883479c0.222384,-0.269979 0.442402,-0.539959 0.688443,-0.790806c-2.417832,-0.746164 -5.013099,-1.152196 -7.712459,-1.152196c-13.113547,0 -23.743019,9.55132 -23.743019,21.334753s10.627106,21.339004 23.740653,21.339004s23.743019,-9.55132 23.743019,-21.334753c0,-3.233376 -0.802001,-6.296686 -2.233301,-9.041122z"/>
  <path id="svg_10" fill="#FFFFFF" d="m38.120776,6.440892l-5.498,-3.289c-0.962,-0.616 -1.405,0.173 -1.405,0.173l0,3.6l0,3.6c0,0 0.444,0.789 1.405,0.173l5.498,-3.289c0,0 0.203,-0.122 0.203,-0.483c0.001,-0.363 -0.203,-0.485 -0.203,-0.485z"/>
  <path stroke="null" id="svg_11" fill="#FFFFFF" d="m38.124757,4.975729c-1.336,-1.039403 -2.672,-2.080107 -4.008,-3.119509c-0.496,-0.386361 -0.992,-0.771422 -1.487,-1.157783c-0.841,-0.654342 -1.767,-0.667351 -2.538,0.139194c-0.365,0.381158 -0.544,0.909315 -0.544,1.512923c0,1.826435 0,3.654171 0,5.480606c0,1.175995 0,2.35069 0,3.526685c0,0.603608 0.178,1.130464 0.544,1.512923c0.771,0.806545 1.698,0.792236 2.538,0.139194c1.183,-0.921023 2.366,-1.842046 3.55,-2.763068c0.585,-0.455308 1.17,-0.910616 1.755,-1.365924c0.174,-0.135291 0.347,-0.262778 0.488,-0.460511c0.705,-0.997775 0.571,-2.692821 -0.298,-3.444729c-0.506,-0.437096 -1.229,-0.131389 -1.522,0.519051c-0.32,0.71028 -0.105,1.544144 0.399,1.979939c0.071,0.061141 0.01,0.001301 -0.181,-0.179521c-0.039,-0.067646 -0.077,-0.133991 -0.116,-0.201636c0.053,0.120982 0.042,0.087159 -0.032,-0.101469c-0.042,-0.179521 0.007,-0.284893 0.062,-0.446202c-0.01,0.022115 -0.02,0.04423 -0.03,0.066345c0.073,-0.165212 0.174,-0.293999 0.303,-0.386361c-0.027,0.026018 -0.059,0.046832 -0.088,0.068947c-0.219,0.170415 -0.439,0.34083 -0.658,0.512547c-0.778,0.604909 -1.556,1.211119 -2.334,1.816028c-0.695,0.541166 -1.39,1.081031 -2.085,1.622197c-0.113,0.08846 -0.226,0.175619 -0.34,0.264079c-0.034,0.027318 -0.342,0.20684 -0.091,0.084557c-0.086,0.042929 -0.321,0.053336 -0.007,0.023416c-0.238,0.022115 0.259,0.080655 0.046,0.013009c-0.209,-0.065044 0.243,0.16261 0.068,0.033823c-0.172,-0.126185 0.215,0.240663 0.078,0.081955c-0.028,-0.032522 -0.053,-0.068947 -0.077,-0.105371c0.262,0.386361 0.15,0.271884 0.1,0.161309c0.051,0.243265 0.101,0.486529 0.152,0.729794c0,-3.122111 0,-6.244222 0,-9.365033c-0.051,0.243265 -0.101,0.486529 -0.152,0.729794c0.011,-0.024717 0.024,-0.048133 0.037,-0.072849c-0.231,0.416281 -0.159,0.260176 -0.089,0.165212c0.061,-0.083256 0.197,-0.189928 -0.091,0.080655c0.213,-0.200335 -0.252,0.070248 0.031,-0.018212c-0.057,0.010407 -0.114,0.020814 -0.171,0.032522c0.118,0.003903 0.09,-0.006504 -0.083,-0.031221c0.053,0.010407 0.286,0.13269 0.064,0.001301c0.153,0.089761 0.302,0.227654 0.446,0.33953c0.614,0.478724 1.229,0.956147 1.843,1.43487c1.132,0.880696 2.263,1.761391 3.395,2.642087c0.521,0.404574 1.218,0.156106 1.522,-0.519051c0.308,-0.681661 0.12,-1.571463 -0.399,-1.976036z"/>
 </g>
</svg>