<svg width="18" height="18" xmlns="http://www.w3.org/2000/svg">
 <title/>
 <desc/>

 <g>
  <title>background</title>
  <rect fill="none" id="canvas_background" height="402" width="582" y="-1" x="-1"/>
 </g>
 <g>
  <title>Layer 1</title>
  <path fill="#ffffff" id="Shape" d="m0,6l0,6l4,0l5,5l0,-16l-5,5l-4,0l0,0zm13.5,3c0,-1.8 -1,-3.3 -2.5,-4l0,8c1.5,-0.7 2.5,-2.2 2.5,-4l0,0zm-2.5,-8.8l0,2.1c2.9,0.9 5,3.5 5,6.7c0,3.2 -2.1,5.8 -5,6.7l0,2.1c4,-0.9 7,-4.5 7,-8.8c0,-4.3 -3,-7.9 -7,-8.8l0,0z"/>
 </g>
</svg>